<?xml version="1.0" encoding="UTF-8"?>
<svg version="1.1" xmlns="http://www.w3.org/2000/svg" width="293" height="182">
<path d="M0 0 C96.69 0 193.38 0 293 0 C293 60.06 293 120.12 293 182 C196.31 182 99.62 182 0 182 C0 121.94 0 61.88 0 0 Z " fill="#9D9C9C" transform="translate(0,0)"/>
<path d="M0 0 C23.43 0 46.86 0 71 0 C71 1.32 71 2.64 71 4 C68.27521848 5.36239076 66.13159145 5.11969958 63.08154297 5.11352539 C61.19375122 5.11334412 61.19375122 5.11334412 59.26782227 5.11315918 C57.92594351 5.10812321 56.58406524 5.1029566 55.2421875 5.09765625 C53.41699585 5.09614563 53.41699585 5.09614563 51.55493164 5.09460449 C46.99494489 5.08935922 42.43497153 5.07539804 37.875 5.0625 C27.68625 5.041875 17.4975 5.02125 7 5 C7 36.02 7 67.04 7 99 C14.321875 98.38125 21.64375 97.7625 29.1875 97.125 C44.93654599 95.80634034 60.68203952 94.5308182 76.453125 93.50390625 C81.56865391 93.17019238 86.68108318 92.80585504 91.79328918 92.42463684 C95.60259218 92.14085094 99.41229742 91.86265566 103.22201538 91.58450317 C105.07410952 91.44789986 106.92603001 91.30891505 108.77774048 91.16720581 C121.55851762 90.19121598 134.17859617 89.87322657 147 90 C147 79.77 147 69.54 147 59 C148.65 59.66 150.3 60.32 152 61 C152 76.18 152 91.36 152 107 C146.18375 107.185625 146.18375 107.185625 140.25 107.375 C131.00922538 107.69867699 121.86950035 108.31041543 112.68164062 109.33496094 C106.42334485 110.01498392 100.29959998 110.16577895 94 110 C94 113.96 94 117.92 94 122 C96.97 122 99.94 122 103 122 C103 122.66 103 123.32 103 124 C86.34593322 125.87472009 69.74794031 126.5680896 53 127 C53 126.34 53 125.68 53 125 C57.95 124.505 57.95 124.505 63 124 C63 120.37 63 116.74 63 113 C61.90872803 113.08564209 60.81745605 113.17128418 59.69311523 113.25952148 C55.520241 113.58592627 51.34697166 113.9070397 47.17358398 114.22680664 C45.39060017 114.3641061 43.60771642 114.50271334 41.82495117 114.64282227 C27.88082769 115.73733125 13.98631311 116.39189943 0 117 C0 78.39 0 39.78 0 0 Z " fill="#050505" transform="translate(39,52)"/>
<path d="M0 0 C2.77734375 0.56640625 2.77734375 0.56640625 4.43481445 2.25097656 C6.0975229 5.11861193 6.1093399 6.88013956 6.03515625 10.1796875 C6.01388672 11.80487305 6.01388672 11.80487305 5.9921875 13.46289062 C5.94771484 15.15381836 5.94771484 15.15381836 5.90234375 16.87890625 C5.77041329 23.59571883 5.79061832 29.91157385 6.77734375 36.56640625 C6.95299486 40.816642 6.96242153 45.06298932 6.96484375 49.31640625 C6.97708984 50.43273438 6.98933594 51.5490625 7.00195312 52.69921875 C7.02044936 63.27906287 5.02622793 72.91152576 2.4609375 83.1328125 C1.57411244 87.58720811 1.16516254 92.04485568 0.77734375 96.56640625 C1.08849121 96.01927979 1.39963867 95.47215332 1.72021484 94.90844727 C2.65885519 93.25902367 3.59830331 91.61005963 4.53833008 89.96142578 C5.62105783 88.06128853 6.70159894 86.15990376 7.7800293 84.25732422 C10.39168715 79.66643825 13.03219445 75.10944639 15.8359375 70.6328125 C16.3014502 69.87991943 16.76696289 69.12702637 17.24658203 68.35131836 C18.12113088 66.94507815 19.01077999 65.54808129 19.91748047 64.16235352 C22.07564991 60.66428002 22.80922114 59.1135382 22.5625 54.87890625 C22.30339844 53.78578125 22.04429687 52.69265625 21.77734375 51.56640625 C21.24823151 46.77416107 21.07789402 43.67198809 23.71484375 39.50390625 C27.26739609 37.25637314 29.46915735 36.77023395 33.6171875 37.01953125 C35.77734375 37.56640625 35.77734375 37.56640625 38.83984375 40.12890625 C41.12820236 44.18889734 41.66096936 45.98761901 40.77734375 50.56640625 C38.44877699 54.1672032 35.40990017 56.98129156 32.27734375 59.87890625 C26.47551734 66.11586964 22.95424343 74.06147629 19.234375 81.6484375 C17.2132077 85.69619078 15.01946971 89.63772537 12.77734375 93.56640625 C14.38609375 92.57640625 14.38609375 92.57640625 16.02734375 91.56640625 C19.08715061 89.68344818 19.91093015 89.56640625 23.77734375 89.56640625 C23.77734375 88.90640625 23.77734375 88.24640625 23.77734375 87.56640625 C24.81890625 87.08171875 25.86046875 86.59703125 26.93359375 86.09765625 C35.01856581 82.32149871 43.04762845 78.46066992 51.01318359 74.4387207 C56.25937768 71.79993606 61.56099211 69.31511628 66.91015625 66.890625 C67.85632813 66.45363281 68.8025 66.01664062 69.77734375 65.56640625 C70.84082031 65.09074219 71.90429688 64.61507812 73 64.125 C75.81967745 62.54264936 76.64899841 61.72822645 78.08984375 58.94140625 C79.5658479 56.70359351 80.37266759 55.73038284 82.87890625 54.71484375 C87.21125164 53.97588183 89.36099037 54.35457734 93.33984375 56.37890625 C95.85681118 58.88884305 96.26586117 61.06326559 96.46484375 64.56640625 C96.22116625 68.19449352 95.79653855 69.53641437 93.77734375 72.69140625 C89.67200741 75.25724146 87.56571417 75.10702872 82.77734375 74.56640625 C81.29234375 73.57640625 81.29234375 73.57640625 79.77734375 72.56640625 C72.66179957 72.56640625 67.8920394 74.78023524 61.671875 78.09765625 C59.24050582 79.33138744 57.06933371 80.19586487 54.46484375 80.94140625 C41.82456906 84.85006262 29.70429262 93.28177367 18.77734375 100.56640625 C24.14311819 100.27555119 29.20993923 99.95173824 34.27734375 98.06640625 C42.70864444 94.95196263 52.20574221 95.37287751 61.08984375 95.37890625 C62.09313721 95.37826172 63.09643066 95.37761719 64.13012695 95.37695312 C70.81305784 95.42433834 77.09809109 95.99507853 83.6875 97.11328125 C90.34020083 98.08889857 96.73348091 98.7077071 102.77734375 95.56640625 C106.67915969 95.70829047 109.264 96.29335106 112.71484375 98.12890625 C115.10530483 100.95399662 115.43789708 102.85175379 115.2109375 106.53125 C114.51260182 109.80902376 112.88725273 112.02210425 110.77734375 114.56640625 C107.49859992 116.20577816 104.29472461 116.37260815 100.77734375 115.56640625 C99.2578125 114.14453125 99.2578125 114.14453125 97.77734375 112.31640625 C92.05118947 105.87692414 81.68083565 104.73647119 73.38476562 104.20263672 C69.68012102 104.05298373 65.98276044 104.04772928 62.27587891 104.09985352 C60.0139116 104.1290798 57.75426775 104.12034387 55.4921875 104.10742188 C47.78519579 104.11949176 40.79929866 104.63308971 33.34521484 106.82788086 C30.62885118 107.60911304 27.94023023 108.11043991 25.15234375 108.56640625 C17.52444309 109.90540464 10.64241808 111.96240355 3.79296875 115.58203125 C-0.63186785 117.74299796 -5.27629776 119.56640625 -10.22265625 119.56640625 C-10.22265625 120.22640625 -10.22265625 120.88640625 -10.22265625 121.56640625 C-14.67765625 122.55640625 -14.67765625 122.55640625 -19.22265625 123.56640625 C-19.22265625 124.22640625 -19.22265625 124.88640625 -19.22265625 125.56640625 C-20.54265625 125.56640625 -21.86265625 125.56640625 -23.22265625 125.56640625 C-22.02826446 121.42415387 -20.38160911 117.95023675 -18.15112305 114.26586914 C-14.32994027 107.94472879 -11.23090415 101.64677374 -8.91015625 94.62890625 C-8.69262695 93.97567383 -8.47509766 93.32244141 -8.25097656 92.64941406 C-7.51556528 90.30214243 -6.86560723 87.94080003 -6.22265625 85.56640625 C-5.87920166 84.36226074 -5.53574707 83.15811523 -5.18188477 81.91748047 C-2.38473045 71.5873013 -1.6233163 61.79428491 -1.75610352 51.11572266 C-1.78545661 48.54004987 -1.77657265 45.96639922 -1.76367188 43.390625 C-1.76990136 41.72004226 -1.7782861 40.04946585 -1.7890625 38.37890625 C-1.78612686 37.62561035 -1.78319122 36.87231445 -1.78016663 36.09619141 C-1.88216415 30.26415168 -2.55672168 23.36483999 -6.74513245 18.96826172 C-8.20565917 17.79340497 -9.71111969 16.6748664 -11.22265625 15.56640625 C-11.22265625 14.90640625 -11.22265625 14.24640625 -11.22265625 13.56640625 C-11.88265625 13.56640625 -12.54265625 13.56640625 -13.22265625 13.56640625 C-13.51169836 9.30303511 -13.62090061 6.52219272 -11.97265625 2.56640625 C-8.06418513 -0.2761182 -4.72991635 0.00584662 0 0 Z " fill="#E50E10" transform="translate(118.22265625,-0.56640625)"/>
<path d="M0 0 C2.77734375 0.56640625 2.77734375 0.56640625 4.43481445 2.25097656 C6.0975229 5.11861193 6.1093399 6.88013956 6.03515625 10.1796875 C6.01388672 11.80487305 6.01388672 11.80487305 5.9921875 13.46289062 C5.94771484 15.15381836 5.94771484 15.15381836 5.90234375 16.87890625 C5.77041329 23.59571883 5.79061832 29.91157385 6.77734375 36.56640625 C6.95299486 40.816642 6.96242153 45.06298932 6.96484375 49.31640625 C6.97708984 50.43273438 6.98933594 51.5490625 7.00195312 52.69921875 C7.01452157 59.88836979 6.33729055 66.55301414 4.77734375 73.56640625 C4.60468994 74.3641748 4.43203613 75.16194336 4.25415039 75.98388672 C3.76104849 78.20413859 3.24325315 80.41681976 2.71484375 82.62890625 C2.54146484 83.37333984 2.36808594 84.11777344 2.18945312 84.88476562 C0.90582643 90.30944089 0.90582643 90.30944089 -0.22265625 92.56640625 C-0.88265625 92.56640625 -1.54265625 92.56640625 -2.22265625 92.56640625 C-2.22265625 95.20640625 -2.22265625 97.84640625 -2.22265625 100.56640625 C3.24223996 98.79021598 3.24223996 98.79021598 6.71484375 94.37890625 C7.06546875 93.45078125 7.41609375 92.52265625 7.77734375 91.56640625 C8.43734375 91.56640625 9.09734375 91.56640625 9.77734375 91.56640625 C10.21046875 92.52546875 10.21046875 92.52546875 10.65234375 93.50390625 C11.60557826 95.71846704 11.60557826 95.71846704 13.77734375 96.56640625 C14.10734375 95.90640625 14.43734375 95.24640625 14.77734375 94.56640625 C16.09734375 94.89640625 17.41734375 95.22640625 18.77734375 95.56640625 C18.11734375 97.87640625 17.45734375 100.18640625 16.77734375 102.56640625 C19.08734375 102.56640625 21.39734375 102.56640625 23.77734375 102.56640625 C23.44734375 104.21640625 23.11734375 105.86640625 22.77734375 107.56640625 C21.10671875 107.75203125 21.10671875 107.75203125 19.40234375 107.94140625 C15.74630698 108.21298755 15.74630698 108.21298755 13.77734375 110.56640625 C13.01421875 110.33953125 12.25109375 110.11265625 11.46484375 109.87890625 C10.57796875 109.77578125 9.69109375 109.67265625 8.77734375 109.56640625 C6.02734375 111.81640625 6.02734375 111.81640625 3.77734375 114.56640625 C1.59119951 116.75255049 0.23854426 117.2489716 -2.66015625 118.19140625 C-3.44261719 118.45179687 -4.22507812 118.7121875 -5.03125 118.98046875 C-7.22265625 119.56640625 -7.22265625 119.56640625 -10.22265625 119.56640625 C-10.22265625 120.22640625 -10.22265625 120.88640625 -10.22265625 121.56640625 C-14.67765625 122.55640625 -14.67765625 122.55640625 -19.22265625 123.56640625 C-19.22265625 124.22640625 -19.22265625 124.88640625 -19.22265625 125.56640625 C-20.54265625 125.56640625 -21.86265625 125.56640625 -23.22265625 125.56640625 C-22.02826446 121.42415387 -20.38160911 117.95023675 -18.15112305 114.26586914 C-14.32994027 107.94472879 -11.23090415 101.64677374 -8.91015625 94.62890625 C-8.69262695 93.97567383 -8.47509766 93.32244141 -8.25097656 92.64941406 C-7.51556528 90.30214243 -6.86560723 87.94080003 -6.22265625 85.56640625 C-5.87920166 84.36226074 -5.53574707 83.15811523 -5.18188477 81.91748047 C-2.38473045 71.5873013 -1.6233163 61.79428491 -1.75610352 51.11572266 C-1.78545661 48.54004987 -1.77657265 45.96639922 -1.76367188 43.390625 C-1.76990136 41.72004226 -1.7782861 40.04946585 -1.7890625 38.37890625 C-1.78612686 37.62561035 -1.78319122 36.87231445 -1.78016663 36.09619141 C-1.88216415 30.26415168 -2.55672168 23.36483999 -6.74513245 18.96826172 C-8.20565917 17.79340497 -9.71111969 16.6748664 -11.22265625 15.56640625 C-11.22265625 14.90640625 -11.22265625 14.24640625 -11.22265625 13.56640625 C-11.88265625 13.56640625 -12.54265625 13.56640625 -13.22265625 13.56640625 C-13.51169836 9.30303511 -13.62090061 6.52219272 -11.97265625 2.56640625 C-8.06418513 -0.2761182 -4.72991635 0.00584662 0 0 Z " fill="#F30504" transform="translate(118.22265625,-0.56640625)"/>
<path d="M0 0 C2.77734375 0.56640625 2.77734375 0.56640625 4.43481445 2.25097656 C6.0975229 5.11861193 6.1093399 6.88013956 6.03515625 10.1796875 C6.01388672 11.80487305 6.01388672 11.80487305 5.9921875 13.46289062 C5.94771484 15.15381836 5.94771484 15.15381836 5.90234375 16.87890625 C5.77041329 23.59571883 5.79061832 29.91157385 6.77734375 36.56640625 C6.95299486 40.816642 6.96242153 45.06298932 6.96484375 49.31640625 C6.97708984 50.43273438 6.98933594 51.5490625 7.00195312 52.69921875 C7.01449475 59.87302842 6.3327946 66.56203042 4.77734375 73.56640625 C2.77734375 70.56640625 2.77734375 70.56640625 2.77734375 67.56640625 C1.78734375 68.06140625 1.78734375 68.06140625 0.77734375 68.56640625 C0.77734375 70.54640625 0.77734375 72.52640625 0.77734375 74.56640625 C0.11734375 74.56640625 -0.54265625 74.56640625 -1.22265625 74.56640625 C-1.22265625 75.55640625 -1.22265625 76.54640625 -1.22265625 77.56640625 C-1.88265625 77.56640625 -2.54265625 77.56640625 -3.22265625 77.56640625 C-2.89265625 81.85640625 -2.56265625 86.14640625 -2.22265625 90.56640625 C-4.69765625 91.06140625 -4.69765625 91.06140625 -7.22265625 91.56640625 C-6.76857498 89.04474158 -6.30951555 86.52414809 -5.84765625 84.00390625 C-5.72132812 83.29943359 -5.595 82.59496094 -5.46484375 81.86914062 C-5.3359375 81.16982422 -5.20703125 80.47050781 -5.07421875 79.75 C-4.95900879 79.11634521 -4.84379883 78.48269043 -4.72509766 77.82983398 C-4.22265625 75.56640625 -4.22265625 75.56640625 -3.18823242 72.36108398 C-2.08227003 68.01469372 -1.9167215 64.12771332 -1.921875 59.66796875 C-1.91758987 58.83357269 -1.91330475 57.99917664 -1.90888977 57.13949585 C-1.90317482 55.38304548 -1.90262518 53.62657145 -1.90698242 51.87011719 C-1.910139 49.20596256 -1.8866599 46.54292371 -1.86132812 43.87890625 C-1.85905425 42.1627618 -1.85835205 40.4466144 -1.859375 38.73046875 C-1.85016525 37.94580231 -1.84095551 37.16113586 -1.83146667 36.35269165 C-1.88023325 30.42177744 -2.47081873 23.45200962 -6.7454071 18.96963501 C-8.20540975 17.79380167 -9.71095512 16.67498708 -11.22265625 15.56640625 C-11.22265625 14.90640625 -11.22265625 14.24640625 -11.22265625 13.56640625 C-11.88265625 13.56640625 -12.54265625 13.56640625 -13.22265625 13.56640625 C-13.51169836 9.30303511 -13.62090061 6.52219272 -11.97265625 2.56640625 C-8.06418513 -0.2761182 -4.72991635 0.00584662 0 0 Z " fill="#E80A0A" transform="translate(118.22265625,-0.56640625)"/>
<path d="M0 0 C1.00329346 -0.00064453 2.00658691 -0.00128906 3.0402832 -0.00195312 C9.72321409 0.04543209 16.00824734 0.61617228 22.59765625 1.734375 C29.25035708 2.70999232 35.64363716 3.32880085 41.6875 0.1875 C45.58931594 0.32938422 48.17415625 0.91444481 51.625 2.75 C54.01546108 5.57509037 54.34805333 7.47284754 54.12109375 11.15234375 C53.42275807 14.43011751 51.79740898 16.643198 49.6875 19.1875 C46.40097145 20.83076428 43.21031703 20.98727468 39.6875 20.1875 C36.96211141 18.16594963 34.85824907 15.78066511 32.6875 13.1875 C32.0275 12.5275 31.3675 11.8675 30.6875 11.1875 C32.9975 10.5275 35.3075 9.8675 37.6875 9.1875 C37.6875 7.8675 37.6875 6.5475 37.6875 5.1875 C36.79546875 5.19910156 35.9034375 5.21070312 34.984375 5.22265625 C33.22867188 5.23619141 33.22867188 5.23619141 31.4375 5.25 C29.69726562 5.26740234 29.69726562 5.26740234 27.921875 5.28515625 C24.6875 5.1875 24.6875 5.1875 22.87060547 4.71630859 C12.20737769 2.13337957 0.23138986 3.06135051 -10.6875 3.125 C-12.21354017 3.13003269 -13.73958198 3.13459242 -15.265625 3.13867188 C-18.94795154 3.14951981 -22.63021469 3.16668346 -26.3125 3.1875 C-18.7746431 -1.11500954 -8.44944965 -0.00573379 0 0 Z " fill="#CC292B" transform="translate(179.3125,94.8125)"/>
<path d="M0 0 C4.29980658 2.38878143 4.29980658 2.38878143 6 5 C6.80768635 8.49424591 6.75186429 11.49895254 6 15 C4 18.125 4 18.125 1 20 C-3.29179595 20.77653117 -6.29888546 20.4674097 -10 18 C-12.05709596 17.75944532 -12.05709596 17.75944532 -14.1875 17.875 C-15.445625 17.91625 -16.70375 17.9575 -18 18 C-18 17.34 -18 16.68 -18 16 C-18.66 16 -19.32 16 -20 16 C-20 15.34 -20 14.68 -20 14 C-21.0725 14.515625 -22.145 15.03125 -23.25 15.5625 C-26.25254899 17.00603317 -27.83246499 17.05818094 -31 16 C-30.27554688 15.67386719 -29.55109375 15.34773438 -28.8046875 15.01171875 C-26.80934063 14.10982197 -24.81726133 13.200669 -22.828125 12.28515625 C-20.77986785 11.35438746 -18.70854067 10.4738499 -16.625 9.625 C-13.50749145 7.69511376 -12.07165371 5.61155966 -10.17578125 2.5234375 C-7.67803854 -0.71284043 -3.72884003 -0.43868706 0 0 Z " fill="#CF1B1C" transform="translate(208,54)"/>
<path d="M0 0 C23.43 0 46.86 0 71 0 C71 1.32 71 2.64 71 4 C68.27521848 5.36239076 66.13159145 5.11969958 63.08154297 5.11352539 C61.19375122 5.11334412 61.19375122 5.11334412 59.26782227 5.11315918 C57.92594351 5.10812321 56.58406524 5.1029566 55.2421875 5.09765625 C53.41699585 5.09614563 53.41699585 5.09614563 51.55493164 5.09460449 C46.99494489 5.08935922 42.43497153 5.07539804 37.875 5.0625 C27.68625 5.041875 17.4975 5.02125 7 5 C7 36.02 7 67.04 7 99 C6.67 99 6.34 99 6 99 C5.84643312 86.76125969 5.69825134 74.52246736 5.5570364 62.28357792 C5.49130076 56.60120626 5.42367647 50.91886991 5.35180664 45.23657227 C5.28257875 39.75775535 5.21821949 34.27890132 5.15730476 28.79998589 C5.13314009 26.70468489 5.10719023 24.60940373 5.07946587 22.5141468 C5.04107564 19.59027335 5.00890689 16.66639513 4.97827148 13.74243164 C4.96532547 12.8670575 4.95237946 11.99168335 4.93904114 11.08978271 C4.9210054 9.05983357 4.95472559 7.02952434 5 5 C6.76753535 3.23246465 9.31558806 3.82913939 11.71313477 3.79467773 C12.9343251 3.77473251 14.15551544 3.75478729 15.41371155 3.73423767 C16.75627513 3.71725209 18.09884007 3.70037333 19.44140625 3.68359375 C20.80761861 3.66303053 22.17382451 3.64203423 23.5400238 3.62062073 C27.14194524 3.56533465 30.74392471 3.51595437 34.34594727 3.46777344 C38.01909572 3.41760597 41.69215955 3.36189515 45.36523438 3.30664062 C52.57675132 3.19897918 59.78833847 3.09755213 67 3 C67.33 2.34 67.66 1.68 68 1 C45.89 1 23.78 1 1 1 C1 39.28 1 77.56 1 117 C0.67 117 0.34 117 0 117 C0 78.39 0 39.78 0 0 Z " fill="#353535" transform="translate(39,52)"/>
<path d="M0 0 C0 0.66 0 1.32 0 2 C0.66 2 1.32 2 2 2 C1 5 1 5 -1.40625 6.5 C-10.75654291 11.03347535 -10.75654291 11.03347535 -15.3125 12.375 C-22.91371226 14.69566261 -30.07197879 19.04021586 -36.86254883 23.11865234 C-41.51720674 25.90058893 -44.69395154 26.62764572 -50 27 C-49.505 25.515 -49.505 25.515 -49 24 C-46.4375 22.8125 -46.4375 22.8125 -44 22 C-44 21.34 -44 20.68 -44 20 C-39.6380921 15.82385158 -35.10923402 13.37222667 -29.625 10.9375 C-28.17924191 10.28092821 -26.73392741 9.62337875 -25.2890625 8.96484375 C-24.57991699 8.64475342 -23.87077148 8.32466309 -23.14013672 7.99487305 C-20.97653259 6.98909084 -18.85671278 5.91794076 -16.734375 4.828125 C-14.05792743 3.47604045 -11.57945098 2.42147867 -8.625 1.8125 C-0.53846154 0 -0.53846154 0 0 0 Z " fill="#DF1110" transform="translate(188,68)"/>
<path d="M0 0 C2.16015625 0.546875 2.16015625 0.546875 5.22265625 3.109375 C7.51101486 7.16936609 8.04378186 8.96808776 7.16015625 13.546875 C4.5344278 17.71764623 1.67417368 20.53519332 -2.83984375 22.546875 C-2.83984375 21.226875 -2.83984375 19.906875 -2.83984375 18.546875 C-4.81984375 18.216875 -6.79984375 17.886875 -8.83984375 17.546875 C-9.16984375 20.186875 -9.49984375 22.826875 -9.83984375 25.546875 C-10.82984375 25.876875 -11.81984375 26.206875 -12.83984375 26.546875 C-12.31390625 25.5259375 -12.31390625 25.5259375 -11.77734375 24.484375 C-10.59358157 20.7752535 -11.20165034 18.37603544 -11.83984375 14.546875 C-12.36767183 9.74693837 -12.53896072 6.65193085 -9.90234375 2.484375 C-6.34979141 0.23684189 -4.14803015 -0.2492973 0 0 Z " fill="#D41A19" transform="translate(151.83984375,36.453125)"/>
<path d="M0 0 C2.77734375 0.56640625 2.77734375 0.56640625 4.43261719 2.13989258 C6.30159444 5.51239891 6.11604626 8.11539546 6.0703125 11.95703125 C6.06606766 12.6616449 6.06182281 13.36625854 6.05744934 14.09222412 C6.04070913 16.33401337 6.00306779 18.57489056 5.96484375 20.81640625 C5.94979079 22.33983073 5.93610345 23.86326936 5.92382812 25.38671875 C5.89082166 29.11357566 5.83907229 32.83990188 5.77734375 36.56640625 C5.44734375 35.90640625 5.11734375 35.24640625 4.77734375 34.56640625 C4.11734375 34.56640625 3.45734375 34.56640625 2.77734375 34.56640625 C2.78258057 34.00131348 2.78781738 33.4362207 2.79321289 32.85400391 C2.81396797 30.29981595 2.82699915 27.74564572 2.83984375 25.19140625 C2.84822266 24.30195313 2.85660156 23.4125 2.86523438 22.49609375 C2.86845703 21.6453125 2.87167969 20.79453125 2.875 19.91796875 C2.88023682 19.13244629 2.88547363 18.34692383 2.89086914 17.53759766 C2.90308328 15.48867957 2.90308328 15.48867957 1.77734375 13.56640625 C1.44734375 14.22640625 1.11734375 14.88640625 0.77734375 15.56640625 C-1.53265625 15.56640625 -3.84265625 15.56640625 -6.22265625 15.56640625 C-5.56265625 17.21640625 -4.90265625 18.86640625 -4.22265625 20.56640625 C-5.39485168 19.7829491 -6.56029293 18.98937789 -7.72265625 18.19140625 C-8.37234375 17.75054688 -9.02203125 17.3096875 -9.69140625 16.85546875 C-10.449375 16.21738281 -10.449375 16.21738281 -11.22265625 15.56640625 C-11.22265625 14.90640625 -11.22265625 14.24640625 -11.22265625 13.56640625 C-11.88265625 13.56640625 -12.54265625 13.56640625 -13.22265625 13.56640625 C-13.51169836 9.30303511 -13.62090061 6.52219272 -11.97265625 2.56640625 C-8.06418513 -0.2761182 -4.72991635 0.00584662 0 0 Z " fill="#CD2224" transform="translate(118.22265625,-0.56640625)"/>
<path d="M0 0 C28.72472873 -0.24129069 28.72472873 -0.24129069 40.75 1.5625 C45.17473215 2.15813702 49.54271313 2.08071546 54 2 C54.625 4.375 54.625 4.375 55 7 C54.34 7.66 53.68 8.32 53 9 C51 9 49 9 47 9 C47 8.34 47 7.68 47 7 C41.27991842 6.19953042 35.67777194 5.80570401 29.90625 5.68359375 C28.65805481 5.6524221 28.65805481 5.6524221 27.38464355 5.62062073 C24.75650364 5.55583806 22.12827375 5.49657588 19.5 5.4375 C17.70572029 5.39424678 15.9114493 5.35063046 14.1171875 5.30664062 C9.74488115 5.20023106 5.37248537 5.09876837 1 5 C1.33 4.34 1.66 3.68 2 3 C2.99 3 3.98 3 5 3 C5 2.34 5 1.68 5 1 C3.35 1 1.7 1 0 1 C0 0.67 0 0.34 0 0 Z " fill="#EB0807" transform="translate(163,97)"/>
<path d="M0 0 C0.33 0 0.66 0 1 0 C2.162585 5.30644644 2.38297828 10.52404355 2.625 15.9375 C2.6765625 16.91396484 2.728125 17.89042969 2.78125 18.89648438 C3.00523459 23.7549736 3.0843652 28.21746393 2 33 C2.99 33 3.98 33 5 33 C4.979375 32.195625 4.95875 31.39125 4.9375 30.5625 C5 28 5 28 6 27 C6.15764405 25.22130274 6.25100677 23.43681524 6.31640625 21.65234375 C6.35830078 20.57275391 6.40019531 19.49316406 6.44335938 18.38085938 C6.48267578 17.24455078 6.52199219 16.10824219 6.5625 14.9375 C6.60568359 13.79732422 6.64886719 12.65714844 6.69335938 11.48242188 C6.79982839 8.65507805 6.90184207 5.82764262 7 3 C7.33 3 7.66 3 8 3 C8.05888242 7.10410468 8.09388921 11.20809827 8.125 15.3125 C8.15013672 17.03436523 8.15013672 17.03436523 8.17578125 18.79101562 C8.21714715 26.09209743 7.6033331 32.87357302 6 40 C4 37 4 37 4 34 C3.01 34.495 3.01 34.495 2 35 C2 36.98 2 38.96 2 41 C1.34 41 0.68 41 0 41 C0 41.99 0 42.98 0 44 C-0.66 44 -1.32 44 -2 44 C-1.67 48.29 -1.34 52.58 -1 57 C-3.475 57.495 -3.475 57.495 -6 58 C-5.54591873 55.47833533 -5.0868593 52.95774184 -4.625 50.4375 C-4.49867187 49.73302734 -4.37234375 49.02855469 -4.2421875 48.30273438 C-4.11328125 47.60341797 -3.984375 46.90410156 -3.8515625 46.18359375 C-3.73635254 45.54993896 -3.62114258 44.91628418 -3.50244141 44.26342773 C-3 42 -3 42 -1.97265625 38.75976562 C-0.90111786 34.61777485 -0.65327223 30.91231211 -0.5859375 26.66015625 C-0.56657135 25.89319931 -0.5472052 25.12624237 -0.5272522 24.33604431 C-0.46797442 21.91163894 -0.42128089 19.48718472 -0.375 17.0625 C-0.33677238 15.40818362 -0.29771794 13.75388613 -0.2578125 12.09960938 C-0.16231637 8.06656156 -0.07809693 4.03342073 0 0 Z " fill="#D02525" transform="translate(117,33)"/>
<path d="M0 0 C2.97 0.495 2.97 0.495 6 1 C5.67 3.31 5.34 5.62 5 8 C3.68 8 2.36 8 1 8 C0.855625 8.5775 0.71125 9.155 0.5625 9.75 C-0.21875 12.875 -0.21875 12.875 -1 16 C-1.66 16 -2.32 16 -3 16 C-3.12375 16.598125 -3.2475 17.19625 -3.375 17.8125 C-4 20 -4 20 -6 23 C-6.66 23 -7.32 23 -8 23 C-7.938125 24.175625 -7.938125 24.175625 -7.875 25.375 C-8 28 -8 28 -10 30 C-10.6425235 32.06874034 -10.6425235 32.06874034 -11 34 C-11.66 34 -12.32 34 -13 34 C-13.25 28.375 -13.25 28.375 -11 25 C-10.47415112 23.22147446 -9.99952267 21.42740987 -9.5625 19.625 C-7.56637597 12.07965116 -7.56637597 12.07965116 -5 9 C-2.8125 8.1875 -2.8125 8.1875 -1 8 C-0.67 5.36 -0.34 2.72 0 0 Z " fill="#EC0805" transform="translate(143,54)"/>
<path d="M0 0 C0.70125 0.00515625 1.4025 0.0103125 2.125 0.015625 C2.82625 0.01046875 3.5275 0.0053125 4.25 0 C6.125 0.265625 6.125 0.265625 8.125 2.265625 C8.44037716 6.60206101 8.57397847 8.59215729 6.125 12.265625 C1.77913172 12.66070393 -0.19503497 12.71893502 -3.875 10.265625 C-4.23828125 8.390625 -4.23828125 8.390625 -4.1875 6.265625 C-4.18169922 5.21375 -4.18169922 5.21375 -4.17578125 4.140625 C-3.74246757 1.43944882 -2.71585695 0.3847464 0 0 Z " fill="#98353D" transform="translate(171.875,107.734375)"/>
<path d="M0 0 C2.1953125 0.22265625 2.1953125 0.22265625 6.0078125 1.16015625 C6.3378125 1.82015625 6.6678125 2.48015625 7.0078125 3.16015625 C5.0278125 3.49015625 3.0478125 3.82015625 1.0078125 4.16015625 C0.3478125 7.79015625 -0.3121875 11.42015625 -0.9921875 15.16015625 C-9.7421875 15.28515625 -9.7421875 15.28515625 -11.9921875 14.16015625 C-11.51664256 9.8802518 -9.00535155 8.03317314 -5.9921875 5.16015625 C-5.3940625 4.21140625 -4.7959375 3.26265625 -4.1796875 2.28515625 C-1.9921875 0.16015625 -1.9921875 0.16015625 0 0 Z " fill="#E10E12" transform="translate(200.9921875,54.83984375)"/>
<path d="M0 0 C0 0.66 0 1.32 0 2 C0.66 2 1.32 2 2 2 C1 5 1 5 -1.51171875 6.5703125 C-2.55972656 7.08335938 -3.60773438 7.59640625 -4.6875 8.125 C-5.72261719 8.64320312 -6.75773438 9.16140625 -7.82421875 9.6953125 C-10.95371309 10.98098422 -13.63805239 11.68256289 -17 12 C-17.66 11.67 -18.32 11.34 -19 11 C-19 10.34 -19 9.68 -19 9 C-17.68 9 -16.36 9 -15 9 C-15.33 8.01 -15.66 7.02 -16 6 C-11.18414715 2.83959657 -5.84393528 0 0 0 Z " fill="#E60B0B" transform="translate(188,68)"/>
<path d="M0 0 C3.125 0.25 3.125 0.25 5 1.4375 C6.53159584 3.90507108 6.55322025 5.39519831 6.125 8.25 C5 10.0625 5 10.0625 3.125 11.25 C0.0625 11.625 0.0625 11.625 -2.875 11.25 C-4.875 8.25 -4.875 8.25 -4.5625 4.625 C-3.68565574 0.3204918 -3.68565574 0.3204918 0 0 Z " fill="#A09293" transform="translate(222.875,99.75)"/>
<path d="M0 0 C3.14602506 0.12240107 6.2913039 0.20672496 9.4387207 0.28442383 C11.45896932 0.34406693 13.47915635 0.40584265 15.49926758 0.4699707 C16.89486153 0.51082542 16.89486153 0.51082542 18.31864929 0.55250549 C23.80350965 0.77570786 28.67782864 1.54062244 33.95629883 3.05981445 C33.95629883 3.71981445 33.95629883 4.37981445 33.95629883 5.05981445 C32.37262135 4.91776705 30.78936565 4.77101293 29.20629883 4.62231445 C27.8837207 4.50049805 27.8837207 4.50049805 26.53442383 4.3762207 C23.95629883 4.05981445 23.95629883 4.05981445 22.27172852 3.55273438 C18.97096165 2.85005109 15.69116243 2.87687772 12.33129883 2.85668945 C11.58855713 2.85098938 10.84581543 2.84528931 10.08056641 2.8394165 C8.50709446 2.82998292 6.93360291 2.82343905 5.36010742 2.81958008 C2.99206248 2.80995975 0.62491838 2.77895815 -1.74291992 2.74731445 C-9.77951206 2.69359618 -16.91509773 3.04669377 -24.66088867 5.51000977 C-27.2144189 6.09920547 -28.59841822 5.91708516 -31.04370117 5.05981445 C-21.45988447 -1.54165143 -11.12799273 -0.43507548 0 0 Z " fill="#C92727" transform="translate(176.043701171875,100.940185546875)"/>
<path d="M0 0 C3 0.25 3 0.25 5 2.25 C5.32954432 5.34771665 5.45334601 7.42331023 3.9375 10.1875 C0.87530347 11.86676907 -1.69370941 10.93621125 -5 10.25 C-5.1953125 4.1953125 -5.1953125 4.1953125 -5 2.25 C-3 0.25 -3 0.25 0 0 Z " fill="#9F9495" transform="translate(115,2.75)"/>
<path d="M0 0 C2.375 0.6875 2.375 0.6875 3.375 1.6875 C3.5 5.1875 3.5 5.1875 3.375 8.6875 C2.375 9.6875 2.375 9.6875 -0.5625 9.9375 C-1.573125 9.855 -2.58375 9.7725 -3.625 9.6875 C-5.7637261 6.47941085 -6.10230962 5.41051503 -5.625 1.6875 C-2.625 -0.3125 -2.625 -0.3125 0 0 Z " fill="#A18C8C" transform="translate(149.625,42.3125)"/>
<path d="M0 0 C3 0.25 3 0.25 5 2.25 C4.6730244 4.86580479 4.17960932 6.89078137 3 9.25 C0.125 9.375 0.125 9.375 -3 9.25 C-5 7.25 -5 7.25 -5.25 4.75 C-4.86630891 0.91308908 -3.76694968 0.31391247 0 0 Z " fill="#A09292" transform="translate(205,59.75)"/>
<path d="M0 0 C0.66 0.33 1.32 0.66 2 1 C1.67 1.99 1.34 2.98 1 4 C4.63 4.33 8.26 4.66 12 5 C12.33 4.01 12.66 3.02 13 2 C15.31 2.66 17.62 3.32 20 4 C20.33 3.01 20.66 2.02 21 1 C21.495 1.99 21.495 1.99 22 3 C21.67 3.66 21.34 4.32 21 5 C18.69 5 16.38 5 14 5 C14 5.99 14 6.98 14 8 C16.31 8 18.62 8 21 8 C21 8.33 21 8.66 21 9 C19.741875 9.04125 18.48375 9.0825 17.1875 9.125 C16.47980469 9.14820312 15.77210938 9.17140625 15.04296875 9.1953125 C13 9 13 9 10 7 C7.94290404 6.75944532 7.94290404 6.75944532 5.8125 6.875 C4.554375 6.91625 3.29625 6.9575 2 7 C2 6.34 2 5.68 2 5 C1.34 5 0.68 5 0 5 C0 4.34 0 3.68 0 3 C-1.0725 3.515625 -2.145 4.03125 -3.25 4.5625 C-6.25254899 6.00603317 -7.83246499 6.05818094 -11 5 C-9.21289414 4.13633178 -7.4201535 3.28431406 -5.625 2.4375 C-4.62726563 1.96183594 -3.62953125 1.48617187 -2.6015625 0.99609375 C-1.74304688 0.66738281 -0.88453125 0.33867188 0 0 Z " fill="#CC2423" transform="translate(188,65)"/>
<path d="M0 0 C0.33 0.66 0.66 1.32 1 2 C-1.97 2 -4.94 2 -8 2 C-7.67 3.32 -7.34 4.64 -7 6 C-7.99 6.495 -7.99 6.495 -9 7 C-8.67 9.64 -8.34 12.28 -8 15 C-9.65 15.33 -11.3 15.66 -13 16 C-14.74601232 12.50797535 -14.55838804 8.81017721 -14 5 C-10.33829516 -0.78785604 -6.25202943 -0.61294406 0 0 Z " fill="#D01E23" transform="translate(154,37)"/>
<path d="M0 0 C2.64 0 5.28 0 8 0 C7 2 7 2 5.0390625 2.8515625 C4.24242188 3.10679688 3.44578125 3.36203125 2.625 3.625 C1.43777344 4.01558594 1.43777344 4.01558594 0.2265625 4.4140625 C-2 5 -2 5 -5 5 C-5 5.66 -5 6.32 -5 7 C-7.97 7.66 -10.94 8.32 -14 9 C-14 9.66 -14 10.32 -14 11 C-15.32 11 -16.64 11 -18 11 C-16.90931332 7.22454612 -16.0916909 4.52956528 -13 2 C-12.34 3.32 -11.68 4.64 -11 6 C-9.35 6 -7.7 6 -6 6 C-6 5.34 -6 4.68 -6 4 C-3 2 -3 2 0 2 C0 1.34 0 0.68 0 0 Z " fill="#D51917" transform="translate(113,114)"/>
<path d="M0 0 C1.33332095 2.6666419 0.67102033 4.16680303 0 7 C-0.99 7 -1.98 7 -3 7 C-3.66 10.3 -4.32 13.6 -5 17 C-7.31 17.66 -9.62 18.32 -12 19 C-12 16.36 -12 13.72 -12 11 C-11.34 11 -10.68 11 -10 11 C-9.67 10.34 -9.34 9.68 -9 9 C-9 10.98 -9 12.96 -9 15 C-6.03 10.05 -3.06 5.1 0 0 Z " fill="#CC2729" transform="translate(128,81)"/>
<path d="M0 0 C0.66 2.31 1.32 4.62 2 7 C3.98 7 5.96 7 8 7 C7.67 7.66 7.34 8.32 7 9 C4.9375 9.625 4.9375 9.625 3 10 C4.98 10 6.96 10 9 10 C9 10.33 9 10.66 9 11 C2.14272182 11.84212188 2.14272182 11.84212188 -1.01953125 9.51171875 C-2.76774059 7.73406588 -4.40008897 5.91124507 -6 4 C-6.66 3.34 -7.32 2.68 -8 2 C-5.09399739 0.74335022 -3.20395416 0 0 0 Z " fill="#CF1F22" transform="translate(218,104)"/>
<path d="M0 0 C0.66 0.33 1.32 0.66 2 1 C1.01 1.680625 1.01 1.680625 0 2.375 C-0.99 3.179375 -0.99 3.179375 -2 4 C-2 4.66 -2 5.32 -2 6 C-3.32 6 -4.64 6 -6 6 C-6 6.66 -6 7.32 -6 8 C-5.34 8.33 -4.68 8.66 -4 9 C-7.75035316 9.88243604 -11.15924984 10 -15 10 C-16.67453799 10.291224 -18.34550895 10.61070799 -20 11 C-18.1190341 7.23806819 -13.24508465 6.04029715 -9.5625 4.3125 C-8.67755859 3.88388672 -7.79261719 3.45527344 -6.88085938 3.01367188 C-6.03458984 2.61341797 -5.18832031 2.21316406 -4.31640625 1.80078125 C-3.53724854 1.43122314 -2.75809082 1.06166504 -1.95532227 0.6809082 C-1.31006592 0.4562085 -0.66480957 0.23150879 0 0 Z " fill="#D31E1F" transform="translate(175,71)"/>
<path d="M0 0 C0.99 0.33 1.98 0.66 3 1 C1.25907235 4.40055811 -0.49432511 7.79453543 -2.25 11.1875 C-2.98669922 12.62706055 -2.98669922 12.62706055 -3.73828125 14.09570312 C-6.15527932 18.75245274 -8.46510209 23.06953019 -12 27 C-12.125 24.625 -12.125 24.625 -12 22 C-11.34 21.34 -10.68 20.68 -10 20 C-9.35232207 17.42938689 -9.35232207 17.42938689 -9 15 C-8.34 15 -7.68 15 -7 15 C-6.814375 14.1028125 -6.814375 14.1028125 -6.625 13.1875 C-6 11 -6 11 -4 8 C-3.34 8 -2.68 8 -2 8 C-1.855625 7.236875 -1.71125 6.47375 -1.5625 5.6875 C-1 3 -1 3 0 0 Z " fill="#D91315" transform="translate(144,62)"/>
<path d="M0 0 C0.33 2.31 0.66 4.62 1 7 C0.34 7 -0.32 7 -1 7 C-1 7.66 -1 8.32 -1 9 C-2.32 9.33 -3.64 9.66 -5 10 C-6.5625 7.6875 -6.5625 7.6875 -8 5 C-7 2 -7 2 -5.125 0.8125 C-3 0 -3 0 0 0 Z " fill="#B71A28" transform="translate(178,109)"/>
<path d="M0 0 C0.66 0.33 1.32 0.66 2 1 C2.35759183 4.75471427 2.04678338 6.89473739 0.5 10.375 C-2 13 -2 13 -4.046875 13.375 C-6.25 13.375 -6.25 13.375 -10 13 C-9.67 12.34 -9.34 11.68 -9 11 C-8.01 11 -7.02 11 -6 11 C-2.95402417 7.95402417 -2.64428179 5.14181153 -2 1 C-1.34 0.67 -0.68 0.34 0 0 Z " fill="#D1181A" transform="translate(231,101)"/>
<path d="M0 0 C-0.57584432 2.38564077 -1.22227595 4.66682784 -2 7 C-2.66 7 -3.32 7 -4 7 C-3.938125 8.175625 -3.938125 8.175625 -3.875 9.375 C-4 12 -4 12 -6 14 C-6.6425235 16.06874034 -6.6425235 16.06874034 -7 18 C-7.66 18 -8.32 18 -9 18 C-9.25 12.375 -9.25 12.375 -7 9 C-6.5359375 7.2365625 -6.5359375 7.2365625 -6.0625 5.4375 C-4.94472245 1.82116087 -4.0758472 0 0 0 Z " fill="#EF0708" transform="translate(139,70)"/>
<path d="M0 0 C-3.57995133 2.38663422 -7.22029634 3.35265318 -11.3125 4.5 C-12.80888466 4.92606293 -14.30498412 5.35312896 -15.80078125 5.78125 C-16.51314941 5.98492187 -17.22551758 6.18859375 -17.95947266 6.3984375 C-20.66383354 7.19570302 -23.33366936 8.08437613 -26 9 C-25.01906046 6.54765115 -24.31296172 5.2190732 -22.125 3.6875 C-20 3 -20 3 -18.0625 3.5625 C-14.98751691 4.21476914 -13.58543619 2.6395449 -11 1 C-7.30324679 -0.04267398 -3.82798594 -0.08902293 0 0 Z " fill="#DD1416" transform="translate(148,105)"/>
<path d="M0 0 C1.23314794 3.61198652 0.81852045 6.46039358 0.1875 10.1875 C-0.06966797 11.78658203 -0.06966797 11.78658203 -0.33203125 13.41796875 C-0.66267578 14.69607422 -0.66267578 14.69607422 -1 16 C-3.49092811 17.24546405 -4.41080733 16.7767578 -7 16 C-5.35433477 10.31497465 -2.70967216 5.23318364 0 0 Z " fill="#DD1716" transform="translate(107,100)"/>
<path d="M0 0 C2.5 0.125 2.5 0.125 3.5 1.125 C5.16617115 1.16563832 6.83388095 1.167721 8.5 1.125 C5.12830008 3.95722793 1.64111107 5.64603176 -2.5 7.125 C-4.9375 6.8125 -4.9375 6.8125 -6.5 6.125 C-6.5 5.465 -6.5 4.805 -6.5 4.125 C-5.18 4.125 -3.86 4.125 -2.5 4.125 C-2.83 3.135 -3.16 2.145 -3.5 1.125 C-2.5 0.125 -2.5 0.125 0 0 Z " fill="#E30D0E" transform="translate(175.5,72.875)"/>
<path d="M0 0 C2.97 0.495 2.97 0.495 6 1 C5.67 3.31 5.34 5.62 5 8 C3.68 8 2.36 8 1 8 C0.67 8.99 0.34 9.98 0 11 C-0.84098656 6.98195309 -1.05404945 3.98196457 0 0 Z " fill="#E60C0E" transform="translate(143,54)"/>
<path d="M0 0 C-1.0625 1.9375 -1.0625 1.9375 -3 4 C-6.6875 4.75 -6.6875 4.75 -10 5 C-10 5.99 -10 6.98 -10 8 C-11.98 8.33 -13.96 8.66 -16 9 C-15.67 8.01 -15.34 7.02 -15 6 C-12.4375 4.8125 -12.4375 4.8125 -10 4 C-10 3.34 -10 2.68 -10 2 C-6.70021068 -0.19985954 -3.76967739 -1.88483869 0 0 Z " fill="#EB0806" transform="translate(154,86)"/>
<path d="M0 0 C15.74487472 -0.3690205 15.74487472 -0.3690205 23 2 C23 2.66 23 3.32 23 4 C15.27577951 3.33742578 7.65199697 2.23535374 0 1 C0 0.67 0 0.34 0 0 Z " fill="#CF1F1F" transform="translate(187,102)"/>
<path d="M0 0 C3.79031844 0.99745222 5.73298666 2.27947232 8.5625 4.9375 C8.2325 5.5975 7.9025 6.2575 7.5625 6.9375 C5.5 7.5625 5.5 7.5625 3.5625 7.9375 C2.9025 6.9475 2.2425 5.9575 1.5625 4.9375 C2.2225 4.9375 2.8825 4.9375 3.5625 4.9375 C2.59227977 3.20969734 2.59227977 3.20969734 0.5625 1.9375 C-2.20364782 1.97023548 -4.69780547 2.44345672 -7.4375 2.9375 C-4.84273522 0.34273522 -3.7426728 -0.0680486 0 0 Z " fill="#C42B2D" transform="translate(224.4375,95.0625)"/>
<path d="M0 0 C0.66 0 1.32 0 2 0 C2.125 2.375 2.125 2.375 2 5 C0 7 0 7 -1.9453125 7.1953125 C-3.96354167 7.13020833 -5.98177083 7.06510417 -8 7 C-8 6.01 -8 5.02 -8 4 C-5.69 4 -3.38 4 -1 4 C-0.67 2.68 -0.34 1.36 0 0 Z " fill="#D61118" transform="translate(210,66)"/>
<path d="M0 0 C-0.33 1.65 -0.66 3.3 -1 5 C-3.64 5 -6.28 5 -9 5 C-8.67 3.68 -8.34 2.36 -8 1 C-2.25 0 -2.25 0 0 0 Z " fill="#EF0706" transform="translate(198,64)"/>
<path d="M0 0 C0.33 0.66 0.66 1.32 1 2 C0.67 2.66 0.34 3.32 0 4 C-2.31 4 -4.62 4 -7 4 C-7 4.99 -7 5.98 -7 7 C-4.69 7 -2.38 7 0 7 C0 7.33 0 7.66 0 8 C-1.258125 8.04125 -2.51625 8.0825 -3.8125 8.125 C-4.52019531 8.14820312 -5.22789062 8.17140625 -5.95703125 8.1953125 C-8 8 -8 8 -11 6 C-11 5.34 -11 4.68 -11 4 C-10.34 4 -9.68 4 -9 4 C-8.67 3.01 -8.34 2.02 -8 1 C-5.69 1.66 -3.38 2.32 -1 3 C-0.67 2.01 -0.34 1.02 0 0 Z " fill="#C72F31" transform="translate(209,66)"/>
<path d="M0 0 C3.5625 0.125 3.5625 0.125 5.5625 1.125 C5.5625 1.785 5.5625 2.445 5.5625 3.125 C2.60585481 4.6033226 -0.17979737 4.18532783 -3.4375 4.125 C-3.7675 3.135 -4.0975 2.145 -4.4375 1.125 C-3.4375 0.125 -3.4375 0.125 0 0 Z " fill="#E10D11" transform="translate(149.4375,37.875)"/>
<path d="M0 0 C0.66 0.33 1.32 0.66 2 1 C1.34 1.66 0.68 2.32 0 3 C2.64 3 5.28 3 8 3 C4.59568053 5.26954631 2.83475798 5.36549949 -1.1875 5.625 C-2.27417969 5.69976562 -3.36085937 5.77453125 -4.48046875 5.8515625 C-5.72763672 5.92503906 -5.72763672 5.92503906 -7 6 C-2.25 1.125 -2.25 1.125 0 0 Z " fill="#AA6C6C" transform="translate(143,95)"/>
<path d="M0 0 C0 0.66 0 1.32 0 2 C-8.415 2.495 -8.415 2.495 -17 3 C-17 2.67 -17 2.34 -17 2 C-11.21642935 -0.01167675 -6.09781001 -0.22084624 0 0 Z " fill="#1D1D1D" transform="translate(142,174)"/>
<path d="M0 0 C1.0625 1.875 1.0625 1.875 2 4 C1.67 4.66 1.34 5.32 1 6 C1.66 6.33 2.32 6.66 3 7 C2.01 7 1.02 7 0 7 C0 7.66 0 8.32 0 9 C-1.32 9 -2.64 9 -4 9 C-2.94124926 5.59687262 -1.99097846 2.98646769 0 0 Z " fill="#BC2E34" transform="translate(99,116)"/>
<path d="M0 0 C0.66 0.33 1.32 0.66 2 1 C1.01 1.680625 1.01 1.680625 0 2.375 C-0.99 3.179375 -0.99 3.179375 -2 4 C-2 4.66 -2 5.32 -2 6 C-5.3 6.33 -8.6 6.66 -12 7 C-10.54312306 4.08624612 -8.49246097 3.64222221 -5.5625 2.3125 C-4.57378906 1.85488281 -3.58507812 1.39726563 -2.56640625 0.92578125 C-1.29603516 0.46751953 -1.29603516 0.46751953 0 0 Z " fill="#CA3030" transform="translate(175,71)"/>
<path d="M0 0 C0.66 0 1.32 0 2 0 C2.625 3.375 2.625 3.375 3 7 C2.34 7.66 1.68 8.32 1 9 C0.01 9 -0.98 9 -2 9 C-1.125 1.125 -1.125 1.125 0 0 Z " fill="#EB0804" transform="translate(119,67)"/>
<path d="M0 0 C2.9375 0.375 2.9375 0.375 6 1 C6.33 1.66 6.66 2.32 7 3 C3.38026598 4.31626692 0.90432869 5 -3 5 C-2.67 4.01 -2.34 3.02 -2 2 C-1.34 2 -0.68 2 0 2 C0 1.34 0 0.68 0 0 Z " fill="#DF0C0A" transform="translate(201,55)"/>
<path d="M0 0 C0.66 0.33 1.32 0.66 2 1 C3.87056791 1.2275015 5.74685958 1.40962811 7.625 1.5625 C8.62789062 1.64628906 9.63078125 1.73007813 10.6640625 1.81640625 C11.43492188 1.87699219 12.20578125 1.93757812 13 2 C13 2.33 13 2.66 13 3 C2.605 3.495 2.605 3.495 -8 4 C-8 3.67 -8 3.34 -8 3 C-6.865625 2.690625 -5.73125 2.38125 -4.5625 2.0625 C-1.21224901 1.37075469 -1.21224901 1.37075469 0 0 Z " fill="#222222" transform="translate(76,163)"/>
<path d="M0 0 C0.66 0 1.32 0 2 0 C2 2 2 2 0.5 3.625 C0.005 4.07875 -0.49 4.5325 -1 5 C0.32 5.33 1.64 5.66 3 6 C2.34 7.65 1.68 9.3 1 11 C0.67 9.68 0.34 8.36 0 7 C-1.65 7.33 -3.3 7.66 -5 8 C-1.125 1.125 -1.125 1.125 0 0 Z " fill="#C92928" transform="translate(199,55)"/>
<path d="M0 0 C5.53846154 -0.36923077 5.53846154 -0.36923077 7.875 1.5 C8.24625 1.995 8.6175 2.49 9 3 C8.01 4.32 7.02 5.64 6 7 C3.03 6.505 3.03 6.505 0 6 C0.639375 5.690625 1.27875 5.38125 1.9375 5.0625 C3.93610821 4.1654837 3.93610821 4.1654837 5 3 C2.525 2.01 2.525 2.01 0 1 C0 0.67 0 0.34 0 0 Z " fill="#C72520" transform="translate(202,54)"/>
<path d="M0 0 C1.98 0 3.96 0 6 0 C5.67 1.65 5.34 3.3 5 5 C3.35 5.33 1.7 5.66 0 6 C0 4.02 0 2.04 0 0 Z " fill="#EE0908" transform="translate(115,16)"/>
<path d="M0 0 C1.0625 1.8125 1.0625 1.8125 2 4 C1.67 4.99 1.34 5.98 1 7 C-1.5625 8.1875 -1.5625 8.1875 -4 9 C-2.94124926 5.59687262 -1.99097846 2.98646769 0 0 Z " fill="#D41D1C" transform="translate(138,63)"/>
<path d="M0 0 C2.97 0 5.94 0 9 0 C9 0.66 9 1.32 9 2 C6.69 2 4.38 2 2 2 C2.66 3.65 3.32 5.3 4 7 C2.02 5.68 0.04 4.36 -2 3 C-1.34 2.67 -0.68 2.34 0 2 C0 1.34 0 0.68 0 0 Z " fill="#C32A2C" transform="translate(110,13)"/>
<path d="M0 0 C2.64 0 5.28 0 8 0 C7.67 0.66 7.34 1.32 7 2 C4.9375 2.625 4.9375 2.625 3 3 C4.98 3 6.96 3 9 3 C9 3.33 9 3.66 9 4 C6.36 4 3.72 4 1 4 C0.67 2.68 0.34 1.36 0 0 Z " fill="#D32228" transform="translate(218,111)"/>
<path d="M0 0 C3.3 0 6.6 0 10 0 C10.33 1.65 10.66 3.3 11 5 C10.01 4.34 9.02 3.68 8 3 C5.95415921 2.33841957 5.95415921 2.33841957 3.8125 1.875 C2.554375 1.58625 1.29625 1.2975 0 1 C0 0.67 0 0.34 0 0 Z " fill="#E20B0D" transform="translate(207,99)"/>
<path d="M0 0 C0 0.66 0 1.32 0 2 C0.66 2 1.32 2 2 2 C2 2.66 2 3.32 2 4 C-0.31 4.33 -2.62 4.66 -5 5 C-5.33 4.34 -5.66 3.68 -6 3 C-3.375 0 -3.375 0 0 0 Z " fill="#F10609" transform="translate(188,68)"/>
<path d="M0 0 C-0.33 0.99 -0.66 1.98 -1 3 C-3.97 3 -6.94 3 -10 3 C-10 2.34 -10 1.68 -10 1 C-6.59437148 0.22157062 -3.49234244 -0.09978121 0 0 Z " fill="#2B2B2B" transform="translate(102,176)"/>
<path d="M0 0 C0.66 0 1.32 0 2 0 C1.67 1.32 1.34 2.64 1 4 C-3.62 4 -8.24 4 -13 4 C-13 3.67 -13 3.34 -13 3 C-12.14535156 2.95101562 -11.29070312 2.90203125 -10.41015625 2.8515625 C-9.30542969 2.77679688 -8.20070313 2.70203125 -7.0625 2.625 C-5.40927734 2.52058594 -5.40927734 2.52058594 -3.72265625 2.4140625 C-2.37494141 2.20910156 -2.37494141 2.20910156 -1 2 C-0.67 1.34 -0.34 0.68 0 0 Z " fill="#120F10" transform="translate(107,53)"/>
<path d="M0 0 C0 1.65 0 3.3 0 5 C-0.99 5.33 -1.98 5.66 -3 6 C-1.68 6.33 -0.36 6.66 1 7 C-0.65 7 -2.3 7 -4 7 C-5 4 -5 4 -4 1 C-2 0 -2 0 0 0 Z " fill="#B5141B" transform="translate(175,110)"/>
<path d="M0 0 C1.46726798 3.81489674 0.43336419 6.29011622 -1 10 C-1.99 10 -2.98 10 -4 10 C-2.8905928 6.51329166 -1.73662334 3.22515763 0 0 Z " fill="#C82425" transform="translate(107,100)"/>
<path d="M0 0 C0.99 0 1.98 0 3 0 C2.67 1.32 2.34 2.64 2 4 C3.98 3.34 5.96 2.68 8 2 C7.34 3.32 6.68 4.64 6 6 C4.35 5.67 2.7 5.34 1 5 C0.67 3.35 0.34 1.7 0 0 Z " fill="#D81C20" transform="translate(129,89)"/>
<path d="M0 0 C1.09658936 3.28976808 0.79953138 4.71303767 0 8 C-0.33 8 -0.66 8 -1 8 C-1 6.35 -1 4.7 -1 3 C-3.2236068 4.9254644 -3.2236068 4.9254644 -4 8 C-4.33 6.35 -4.66 4.7 -5 3 C-3.35 2.01 -1.7 1.02 0 0 Z " fill="#E71211" transform="translate(121,74)"/>
<path d="M0 0 C-1 2 -1 2 -3 3 C-3.65772428 6.02934491 -3.65772428 6.02934491 -4 9 C-4.33 9 -4.66 9 -5 9 C-5.66 6.36 -6.32 3.72 -7 1 C-3.375 -1.125 -3.375 -1.125 0 0 Z " fill="#CC3031" transform="translate(158,41)"/>
<path d="M0 0 C0.66 0.33 1.32 0.66 2 1 C1.25 5.75 1.25 5.75 -1 8 C-1.33 5.69 -1.66 3.38 -2 1 C-1.34 0.67 -0.68 0.34 0 0 Z " fill="#CD120F" transform="translate(231,101)"/>
<path d="M0 0 C1 2 1 2 0.25 5.0625 C-0.1625 6.031875 -0.575 7.00125 -1 8 C-1.99 8.33 -2.98 8.66 -4 9 C-2.94124926 5.59687262 -1.99097846 2.98646769 0 0 Z " fill="#D32029" transform="translate(133,72)"/>
<path d="M0 0 C2.31 0 4.62 0 7 0 C6.01 1.485 6.01 1.485 5 3 C2.375 3.1875 2.375 3.1875 0 3 C0 2.01 0 1.02 0 0 Z " fill="#F30506" transform="translate(157,99)"/>
<path d="M0 0 C2.475 0.495 2.475 0.495 5 1 C4.01 2.98 3.02 4.96 2 7 C1.67 7 1.34 7 1 7 C0.67 4.69 0.34 2.38 0 0 Z " fill="#F10509" transform="translate(143,54)"/>
<path d="M0 0 C2.10814567 4.21629134 2.17700355 6.39790775 2 11 C1.67 10.34 1.34 9.68 1 9 C0.34 9 -0.32 9 -1 9 C-0.67 6.03 -0.34 3.06 0 0 Z " fill="#CB1E1E" transform="translate(122,25)"/>
<path d="M0 0 C0.66 1.32 1.32 2.64 2 4 C0.1875 4.6875 0.1875 4.6875 -2 5 C-3.75 3.5625 -3.75 3.5625 -5 2 C-3.35 1.34 -1.7 0.68 0 0 Z " fill="#E2121A" transform="translate(215,104)"/>
<path d="M0 0 C1.4540625 0.0309375 1.4540625 0.0309375 2.9375 0.0625 C2.31875 0.35125 1.7 0.64 1.0625 0.9375 C-2.26026568 2.69661124 -3.51473399 4.74585854 -5.0625 8.0625 C-4.046875 0.08258929 -4.046875 0.08258929 0 0 Z " fill="#A77475" transform="translate(223.0625,99.9375)"/>
<path d="M0 0 C2.625 0.9375 2.625 0.9375 5 2 C5 2.66 5 3.32 5 4 C2.69 3.67 0.38 3.34 -2 3 C-2 2.34 -2 1.68 -2 1 C-1.34 0.67 -0.68 0.34 0 0 Z " fill="#DD0E14" transform="translate(223,96)"/>
<path d="M0 0 C0.66 0.33 1.32 0.66 2 1 C1.67 2.98 1.34 4.96 1 7 C0.01 7.33 -0.98 7.66 -2 8 C-1.34 5.36 -0.68 2.72 0 0 Z " fill="#D41B1C" transform="translate(110,92)"/>
<path d="M0 0 C0.66 0.33 1.32 0.66 2 1 C0.8125 2.5 0.8125 2.5 -1 4 C-3.6875 4.1875 -3.6875 4.1875 -6 4 C-3.94766315 1.7522025 -2.99332739 0.9977758 0 0 Z " fill="#CC272A" transform="translate(153,82)"/>
<path d="M0 0 C0.66 0 1.32 0 2 0 C2 1.65 2 3.3 2 5 C0.02 5.99 0.02 5.99 -2 7 C-1.125 1.125 -1.125 1.125 0 0 Z " fill="#ED0708" transform="translate(118,77)"/>
<path d="M0 0 C-2.85306797 2.32472205 -5.54074837 3.7508258 -9 5 C-6.81610567 0.16423399 -5.20641855 -0.13701101 0 0 Z " fill="#D11F23" transform="translate(184,74)"/>
<path d="M0 0 C0.66 0 1.32 0 2 0 C2 1.65 2 3.3 2 5 C0.35 5.33 -1.3 5.66 -3 6 C-3 5.34 -3 4.68 -3 4 C-2.34 4 -1.68 4 -1 4 C-0.67 2.68 -0.34 1.36 0 0 Z " fill="#DE1014" transform="translate(153,50)"/>
</svg>
